
<svg version="1.1" id="Layer_1" xmlns="http://www.w3.org/2000/svg" xmlns:xlink="http://www.w3.org/1999/xlink" x="0px" y="0px"
	 width="100%" viewBox="0 0 208 208" enable-background="new 0 0 208 208" xml:space="preserve">
<path fill="#191919" opacity="1.000000" stroke="none" 
	d="
M209.000000,85.000000 
	C209.000000,98.020897 209.000000,111.041786 208.633759,124.612946 
	C207.839706,125.987518 207.304077,126.774162 207.000961,127.642014 
	C204.221695,135.599380 202.407867,144.050613 198.568649,151.453461 
	C183.577545,180.359680 160.193161,199.073578 128.391602,206.968552 
	C127.168343,207.272232 126.126419,208.306290 125.000000,209.000000 
	C111.979103,209.000000 98.958214,209.000000 85.387177,208.633698 
	C84.012733,207.839615 83.225685,207.306030 82.358299,207.000534 
	C74.252953,204.145874 65.632263,202.285446 58.107632,198.334061 
	C29.295321,183.203964 10.594225,159.813690 2.983755,127.894043 
	C2.730552,126.832069 1.679270,125.960388 1.000000,125.000000 
	C1.000000,111.979103 1.000000,98.958214 1.366307,85.387177 
	C2.160378,84.012726 2.693947,83.225670 2.999434,82.358299 
	C5.854114,74.252953 7.714640,65.632324 11.665943,58.107635 
	C26.795794,29.294973 50.186939,10.595008 82.105988,2.983771 
	C83.167946,2.730539 84.039627,1.679273 85.000000,1.000000 
	C98.020897,1.000000 111.041786,1.000000 124.612823,1.366308 
	C125.987289,2.160380 126.774353,2.693950 127.641731,2.999439 
	C135.747070,5.854112 144.367676,7.714639 151.892365,11.665926 
	C180.704987,26.795746 199.405060,50.186756 207.016220,82.105835 
	C207.269455,83.167854 208.320724,84.039574 209.000000,85.000000 
M57.291855,141.281616 
	C62.187614,141.764420 67.094048,142.674011 71.974678,142.551987 
	C74.456276,142.489944 78.353767,142.901245 78.742935,137.862854 
	C78.935059,137.261292 79.127182,136.659714 79.967148,135.853394 
	C80.636772,133.873627 81.306396,131.893860 82.839813,129.508026 
	C89.489159,129.442276 96.139565,129.427277 102.787346,129.287369 
	C105.704071,129.225967 107.466583,130.329498 108.058052,133.297852 
	C109.632103,141.197266 109.895744,140.772003 118.674179,140.977448 
	C122.164375,141.059128 125.664413,141.023544 129.150238,140.848145 
	C130.659210,140.772217 132.143585,140.207489 133.862015,139.813705 
	C133.266418,137.860397 132.959183,136.576950 132.490219,135.355606 
	C123.852211,112.859474 115.085358,90.411842 106.623917,67.849632 
	C104.676140,62.655937 102.022484,60.328300 96.288467,61.588017 
	C93.621552,62.173908 90.649529,61.644520 87.855019,61.301361 
	C84.887451,60.936954 83.361565,61.937347 82.323914,64.833038 
	C73.914772,88.299812 65.323441,111.701340 56.927113,135.172638 
	C56.345882,136.797424 56.884811,138.822906 57.291855,141.281616 
M42.474552,61.009792 
	C70.804932,25.356709 121.220291,21.121935 152.823685,52.490231 
	C158.890076,58.511490 164.643997,60.734562 172.426437,59.789318 
	C173.993652,59.598972 175.524078,59.105633 177.071457,58.751991 
	C176.587860,57.112816 176.476654,55.222656 175.565903,53.871372 
	C155.599701,24.247637 116.523994,9.152775 81.582237,17.464277 
	C20.762194,31.931377 -8.021571,100.926292 25.412319,153.624237 
	C43.908424,182.777496 71.423599,197.198318 106.003105,195.573105 
	C139.318054,194.007324 164.218536,177.574158 180.887177,148.734894 
	C183.669815,143.920456 183.054733,142.997787 177.653702,142.924454 
	C175.154663,142.890518 172.634216,143.110657 170.160599,142.855606 
	C166.918549,142.521301 165.084656,143.893082 163.274399,146.534241 
	C139.177414,181.691544 93.585876,190.137497 59.057178,165.957199 
	C25.011913,142.115448 17.467237,95.888023 42.474552,61.009792 
M199.453827,110.506752 
	C201.030350,109.768021 203.851639,109.199127 203.979416,108.262718 
	C204.753159,102.592117 204.911850,96.837601 205.302673,90.693222 
	C197.640121,90.693222 190.729218,90.693222 183.735138,90.693222 
	C183.735138,84.857834 183.600525,79.412445 183.788239,73.978188 
	C183.892242,70.966942 182.828323,69.659096 179.805099,69.787254 
	C175.814941,69.956390 171.801804,70.268875 167.830811,70.015007 
	C163.686508,69.750061 162.691101,71.511002 162.900330,75.297768 
	C163.179794,80.355598 162.969421,85.440483 162.969421,90.375839 
	C156.974487,90.375839 151.816711,90.150826 146.704422,90.533501 
	C145.420868,90.629585 143.466095,92.531212 143.232391,93.852867 
	C142.541489,97.759880 142.723206,101.811798 142.247543,105.769051 
	C141.815521,109.363319 143.163727,110.494560 146.678070,110.334373 
	C151.927673,110.095078 157.196243,110.272240 162.525421,110.272240 
	C162.525421,116.263206 162.626282,122.039772 162.479935,127.810066 
	C162.413574,130.426331 163.191986,132.127487 165.942596,132.162827 
	C170.589462,132.222534 175.246033,132.222534 179.884445,131.979218 
	C182.596832,131.836929 183.939865,130.253021 183.723831,127.296349 
	C183.396622,122.817665 183.495941,118.306343 183.125244,113.832825 
	C182.860596,110.639175 184.107910,109.701134 187.122253,109.956963 
	C190.932739,110.280350 194.767944,110.312195 199.453827,110.506752 
z"/>
<path fill="#000000" opacity="1.000000" stroke="none" 
	d="
M84.531342,1.000000 
	C84.039627,1.679273 83.167946,2.730539 82.105988,2.983771 
	C50.186939,10.595008 26.795794,29.294973 11.665943,58.107635 
	C7.714640,65.632324 5.854114,74.252953 2.999434,82.358299 
	C2.693947,83.225670 2.160378,84.012726 1.366307,84.918518 
	C1.000000,57.073105 1.000000,29.146208 1.000000,1.000000 
	C28.687176,1.000000 56.374928,1.000000 84.531342,1.000000 
z"/>
<path fill="#000000" opacity="1.000000" stroke="none" 
	d="
M209.000000,84.531342 
	C208.320724,84.039574 207.269455,83.167854 207.016220,82.105835 
	C199.405060,50.186756 180.704987,26.795746 151.892365,11.665926 
	C144.367676,7.714639 135.747070,5.854112 127.641731,2.999439 
	C126.774353,2.693950 125.987289,2.160380 125.081482,1.366308 
	C152.926895,1.000000 180.853775,1.000000 209.000000,1.000000 
	C209.000000,28.687176 209.000000,56.374928 209.000000,84.531342 
z"/>
<path fill="#000000" opacity="1.000000" stroke="none" 
	d="
M1.000000,125.468658 
	C1.679270,125.960388 2.730552,126.832069 2.983755,127.894043 
	C10.594225,159.813690 29.295321,183.203964 58.107632,198.334061 
	C65.632263,202.285446 74.252953,204.145874 82.358299,207.000534 
	C83.225685,207.306030 84.012733,207.839615 84.918518,208.633698 
	C57.073097,209.000000 29.146198,209.000000 1.000000,209.000000 
	C1.000000,181.312820 1.000000,153.625076 1.000000,125.468658 
z"/>
<path fill="#000000" opacity="1.000000" stroke="none" 
	d="
M125.468658,209.000000 
	C126.126419,208.306290 127.168343,207.272232 128.391602,206.968552 
	C160.193161,199.073578 183.577545,180.359680 198.568649,151.453461 
	C202.407867,144.050613 204.221695,135.599380 207.000961,127.642014 
	C207.304077,126.774162 207.839706,125.987518 208.633759,125.081604 
	C209.000000,152.926895 209.000000,180.853790 209.000000,209.000000 
	C181.312820,209.000000 153.625076,209.000000 125.468658,209.000000 
z"/>
<path fill="#F6F6F6" opacity="1.000000" stroke="none" 
	d="
M42.247292,61.288864 
	C17.467237,95.888023 25.011913,142.115448 59.057178,165.957199 
	C93.585876,190.137497 139.177414,181.691544 163.274399,146.534241 
	C165.084656,143.893082 166.918549,142.521301 170.160599,142.855606 
	C172.634216,143.110657 175.154663,142.890518 177.653702,142.924454 
	C183.054733,142.997787 183.669815,143.920456 180.887177,148.734894 
	C164.218536,177.574158 139.318054,194.007324 106.003105,195.573105 
	C71.423599,197.198318 43.908424,182.777496 25.412319,153.624237 
	C-8.021571,100.926292 20.762194,31.931377 81.582237,17.464277 
	C116.523994,9.152775 155.599701,24.247637 175.565903,53.871372 
	C176.476654,55.222656 176.587860,57.112816 177.071457,58.751991 
	C175.524078,59.105633 173.993652,59.598972 172.426437,59.789318 
	C164.643997,60.734562 158.890076,58.511490 152.823685,52.490231 
	C121.220291,21.121935 70.804932,25.356709 42.247292,61.288864 
z"/>
<path fill="#F8F8F8" opacity="1.000000" stroke="none" 
	d="
M79.319305,136.058151 
	C79.127182,136.659714 78.935059,137.261292 78.374634,138.426315 
	C76.383469,139.552322 74.776398,140.538620 73.134865,140.599762 
	C67.730904,140.801025 62.314468,140.667175 56.902824,140.662048 
	C56.884811,138.822906 56.345882,136.797424 56.927113,135.172638 
	C65.323441,111.701340 73.914772,88.299812 82.323914,64.833038 
	C83.361565,61.937347 84.887451,60.936954 87.855019,61.301361 
	C90.649529,61.644520 93.621552,62.173908 96.288467,61.588017 
	C102.022484,60.328300 104.676140,62.655937 106.623917,67.849632 
	C115.085358,90.411842 123.852211,112.859474 132.490219,135.355606 
	C132.959183,136.576950 133.266418,137.860397 133.862015,139.813705 
	C132.143585,140.207489 130.659210,140.772217 129.150238,140.848145 
	C125.664413,141.023544 122.164375,141.059128 118.674179,140.977448 
	C109.895744,140.772003 109.632103,141.197266 108.058052,133.297852 
	C107.466583,130.329498 105.704071,129.225967 102.787346,129.287369 
	C96.139565,129.427277 89.489159,129.442276 82.057861,129.771027 
	C80.623718,132.042053 79.971512,134.050110 79.319305,136.058151 
M97.726242,110.658600 
	C98.591576,109.544327 100.383080,108.201256 100.173409,107.352562 
	C98.703506,101.402710 96.820580,95.554886 95.069748,89.674423 
	C94.589828,89.707901 94.109901,89.741379 93.629974,89.774864 
	C92.344246,93.327263 91.007751,96.862251 89.782402,100.435356 
	C86.262993,110.697899 86.280678,110.703964 97.726242,110.658600 
z"/>
<path fill="#F7F7F7" opacity="1.000000" stroke="none" 
	d="
M199.023163,110.488274 
	C194.767944,110.312195 190.932739,110.280350 187.122253,109.956963 
	C184.107910,109.701134 182.860596,110.639175 183.125244,113.832825 
	C183.495941,118.306343 183.396622,122.817665 183.723831,127.296349 
	C183.939865,130.253021 182.596832,131.836929 179.884445,131.979218 
	C175.246033,132.222534 170.589462,132.222534 165.942596,132.162827 
	C163.191986,132.127487 162.413574,130.426331 162.479935,127.810066 
	C162.626282,122.039772 162.525421,116.263206 162.525421,110.272240 
	C157.196243,110.272240 151.927673,110.095078 146.678070,110.334373 
	C143.163727,110.494560 141.815521,109.363319 142.247543,105.769051 
	C142.723206,101.811798 142.541489,97.759880 143.232391,93.852867 
	C143.466095,92.531212 145.420868,90.629585 146.704422,90.533501 
	C151.816711,90.150826 156.974487,90.375839 162.969421,90.375839 
	C162.969421,85.440483 163.179794,80.355598 162.900330,75.297768 
	C162.691101,71.511002 163.686508,69.750061 167.830811,70.015007 
	C171.801804,70.268875 175.814941,69.956390 179.805099,69.787254 
	C182.828323,69.659096 183.892242,70.966942 183.788239,73.978188 
	C183.600525,79.412445 183.735138,84.857834 183.735138,90.693222 
	C190.729218,90.693222 197.640121,90.693222 205.302673,90.693222 
	C204.911850,96.837601 204.753159,102.592117 203.979416,108.262718 
	C203.851639,109.199127 201.030350,109.768021 199.023163,110.488274 
z"/>
<path fill="#3C3C3C" opacity="1.000000" stroke="none" 
	d="
M57.097340,140.971832 
	C62.314468,140.667175 67.730904,140.801025 73.134865,140.599762 
	C74.776398,140.538620 76.383469,139.552322 78.364975,138.743591 
	C78.353767,142.901245 74.456276,142.489944 71.974678,142.551987 
	C67.094048,142.674011 62.187614,141.764420 57.097340,140.971832 
z"/>
<path fill="#3C3C3C" opacity="1.000000" stroke="none" 
	d="
M79.643227,135.955780 
	C79.971512,134.050110 80.623718,132.042053 81.625969,129.974060 
	C81.306396,131.893860 80.636772,133.873627 79.643227,135.955780 
z"/>
<path fill="#2C2C2C" opacity="1.000000" stroke="none" 
	d="
M97.319946,110.674286 
	C86.280678,110.703964 86.262993,110.697899 89.782402,100.435356 
	C91.007751,96.862251 92.344246,93.327263 93.629974,89.774864 
	C94.109901,89.741379 94.589828,89.707901 95.069748,89.674423 
	C96.820580,95.554886 98.703506,101.402710 100.173409,107.352562 
	C100.383080,108.201256 98.591576,109.544327 97.319946,110.674286 
z"/>
</svg>
