
<?xml version="1.0" encoding="UTF-8"?>
<svg version="1.1" xmlns="http://www.w3.org/2000/svg" width="208" height="208">
<path d="M0 0 C22.6466315 17.4014023 37.66724239 41.75825246 41.49609375 70.16796875 C43.6234206 100.85128369 37.52661037 127.63340832 17.7109375 151.6328125 C-0.01735141 171.92498094 -24.38402138 186.49569576 -51.72241211 188.39111328 C-84.45468063 189.49388496 -110.66694172 181.96062171 -135.2578125 159.671875 C-153.71753679 141.98237564 -165.972054 117.35914008 -166.83984375 91.6015625 C-167.26807676 58.60889988 -158.44901261 32.74530035 -135.31640625 8.60546875 C-98.8900339 -26.92025153 -40.63076591 -29.7282827 0 0 Z " fill="#181818" transform="translate(166.50390625,19.83203125)"/>
<path d="M0 0 C1.61032104 0.00628418 1.61032104 0.00628418 3.25317383 0.01269531 C11.40691188 0.12837736 18.64990121 1.01709137 26.5 3.3125 C27.58023438 3.57933594 28.66046875 3.84617187 29.7734375 4.12109375 C38.34645822 6.41198409 45.19869784 10.3384879 52.5 15.3125 C53.44875 15.94285156 54.3975 16.57320312 55.375 17.22265625 C64.18981509 23.32040476 73.1704741 30.88999713 78.5 40.3125 C78.75 43.1875 78.75 43.1875 78.5 45.3125 C64.38023369 46.95125365 64.38023369 46.95125365 59.74414062 44.31347656 C57.12147185 42.14453946 55.07563857 39.69452876 52.8828125 37.0859375 C50.63973282 34.47513984 48.76830389 32.94932976 45.8125 31.25 C44.719375 30.610625 43.62625 29.97125 42.5 29.3125 C42.5 28.6525 42.5 27.9925 42.5 27.3125 C38.79812179 25.76009946 35.04876262 24.43284447 31.22753906 23.21069336 C29.39222527 22.60631461 27.56891168 21.96434744 25.7590332 21.28759766 C16.53914311 18.04912337 8.3063403 17.83200445 -1.3125 18.0625 C-2.79489733 18.08262671 -4.27732151 18.10086642 -5.75976562 18.1171875 C-9.34041554 18.16062369 -12.92002675 18.2292969 -16.5 18.3125 C-16.5 18.9725 -16.5 19.6325 -16.5 20.3125 C-17.04527344 20.48265625 -17.59054688 20.6528125 -18.15234375 20.828125 C-23.08168064 22.41225378 -27.77068873 24.2429876 -32.45703125 26.4453125 C-34.45686744 27.29419134 -36.38164449 27.84598575 -38.5 28.3125 C-38.5 28.9725 -38.5 29.6325 -38.5 30.3125 C-39.85839131 31.18326366 -41.21796951 32.05220877 -42.58203125 32.9140625 C-52.27075593 39.97834648 -59.93677746 50.18990502 -64.625 61.125 C-65.12257813 62.26582031 -65.62015625 63.40664062 -66.1328125 64.58203125 C-69.32819129 73.30085051 -69.83826297 81.36578802 -69.8125 90.625 C-69.82861328 91.77162109 -69.84472656 92.91824219 -69.86132812 94.09960938 C-69.86731976 104.68682462 -68.35514021 114.37154265 -62.5 123.3125 C-61.56218534 124.93731842 -60.62471227 126.56233404 -59.6875 128.1875 C-53.98084148 137.60348656 -46.84119524 147.66713239 -36.5 152.3125 C-36.5 152.9725 -36.5 153.6325 -36.5 154.3125 C-35.71625 154.56 -34.9325 154.8075 -34.125 155.0625 C-31.20317344 156.0700264 -28.36263167 157.15360984 -25.5 158.3125 C-8.55934227 165.12421439 11.57390155 166.43281443 28.671875 159.40625 C31.5 158.3125 31.5 158.3125 35.5 158.3125 C35.5 157.6525 35.5 156.9925 35.5 156.3125 C36.61375 155.8175 37.7275 155.3225 38.875 154.8125 C47.58845669 150.41735253 54.26143467 143.827865 60.58984375 136.51171875 C62.5 134.3125 62.5 134.3125 64.19140625 132.70703125 C65.75985722 131.23053929 65.75985722 131.23053929 66.5 128.3125 C72.11 128.3125 77.72 128.3125 83.5 128.3125 C82.07154814 136.88321118 78.84032783 142.40446725 72.5 148.3125 C71.14296509 149.89337572 69.78916647 151.47703176 68.4375 153.0625 C63.39396169 158.70285701 57.69758656 163.01265718 51.5 167.3125 C50.48486328 168.05306641 50.48486328 168.05306641 49.44921875 168.80859375 C43.39218725 172.97199228 36.426402 175.0224483 29.5 177.3125 C28.53320312 177.64894531 27.56640625 177.98539063 26.5703125 178.33203125 C18.2198945 180.99864056 11.01793409 181.64922081 2.25 181.625 C1.09886719 181.64111328 -0.05226563 181.65722656 -1.23828125 181.67382812 C-9.06896727 181.67824227 -16.00513426 180.57069997 -23.5 178.3125 C-23.5 177.6525 -23.5 176.9925 -23.5 176.3125 C-26.47 175.6525 -29.44 174.9925 -32.5 174.3125 C-32.5 173.6525 -32.5 172.9925 -32.5 172.3125 C-33.11488281 172.17972656 -33.72976562 172.04695312 -34.36328125 171.91015625 C-35.17152344 171.73355469 -35.97976562 171.55695313 -36.8125 171.375 C-37.61300781 171.20097656 -38.41351563 171.02695313 -39.23828125 170.84765625 C-41.5 170.3125 -41.5 170.3125 -44.5 169.3125 C-44.5 168.6525 -44.5 167.9925 -44.5 167.3125 C-45.20253906 167.08949219 -45.90507813 166.86648437 -46.62890625 166.63671875 C-50.13467399 165.01977281 -52.66902424 162.75089332 -55.4375 160.125 C-55.96819092 159.62814697 -56.49888184 159.13129395 -57.0456543 158.61938477 C-65.69187861 150.4359948 -73.07404388 140.94737399 -78.5 130.3125 C-78.5 129.3225 -78.5 128.3325 -78.5 127.3125 C-79.16 127.3125 -79.82 127.3125 -80.5 127.3125 C-86.81449276 115.72571231 -86.84684006 102.59936195 -86.8125 89.6875 C-86.82861328 88.46804687 -86.84472656 87.24859375 -86.86132812 85.9921875 C-86.86700521 75.36469241 -85.06107055 65.97696779 -80.453125 56.3828125 C-79.54993551 54.42096648 -78.89944275 52.49406871 -78.25 50.4375 C-74.66816373 40.73187913 -66.48735896 32.69953038 -59.5 25.3125 C-58.95988281 24.7246875 -58.41976562 24.136875 -57.86328125 23.53125 C-56.5 22.3125 -56.5 22.3125 -54.5 22.3125 C-54.005 20.8275 -54.005 20.8275 -53.5 19.3125 C-51.4375 18.625 -51.4375 18.625 -49.5 18.3125 C-49.5 17.6525 -49.5 16.9925 -49.5 16.3125 C-41.78230354 10.56157134 -33.76036695 6.8727191 -24.5 4.3125 C-23.8090625 4.11140625 -23.118125 3.9103125 -22.40625 3.703125 C-20.77344373 3.23047055 -19.13688547 2.77082793 -17.5 2.3125 C-16.68273437 1.97089844 -15.86546875 1.62929687 -15.0234375 1.27734375 C-10.00386885 -0.09719445 -5.1818786 -0.02731321 0 0 Z " fill="#F4F4F4" transform="translate(97.5,13.6875)"/>
<path d="M0 0 C3.27066566 -0.08706892 6.54103365 -0.14041241 9.8125 -0.1875 C10.74126953 -0.21263672 11.67003906 -0.23777344 12.62695312 -0.26367188 C13.51962891 -0.27333984 14.41230469 -0.28300781 15.33203125 -0.29296875 C16.56530151 -0.31653442 16.56530151 -0.31653442 17.82348633 -0.34057617 C20.53349784 0.08348059 21.33611126 0.86035535 23 3 C25.9885046 9.39159944 28.50656905 15.92748967 29 23 C29.66 23 30.32 23 31 23 C31.4375 24.3125 31.875 25.625 32.3125 26.9375 C32.58835938 27.7625 32.86421875 28.5875 33.1484375 29.4375 C33.68083249 31.03956932 34.20778682 32.64346885 34.7265625 34.25 C37.72622788 43.47973964 41.51440308 52.38038957 45.4375 61.25 C46.76256275 64.3748806 48.02647447 67.52147003 49.25 70.6875 C49.60578125 71.59886719 49.9615625 72.51023437 50.328125 73.44921875 C51 76 51 76 50 80 C42.74 80 35.48 80 28 80 C24 71 24 71 24 68 C15.42 68.33 6.84 68.66 -2 69 C-2.99 72.63 -3.98 76.26 -5 80 C-12.26 80 -19.52 80 -27 80 C-25.34557665 68.41903655 -21.31526179 57.82938309 -17 47 C-16.63648437 46.06671875 -16.27296875 45.1334375 -15.8984375 44.171875 C-14.52763117 40.67684206 -13.14481342 37.2838343 -11.4375 33.9375 C-8.37147701 27.67214868 -6.62771093 20.861344 -4.74609375 14.1640625 C-4 12 -4 12 -2 9 C-1.33386665 6.72461677 -1.33386665 6.72461677 -0.875 4.3125 C-0.70742187 3.50425781 -0.53984375 2.69601563 -0.3671875 1.86328125 C-0.24601562 1.24839844 -0.12484375 0.63351563 0 0 Z " fill="#F7F7F7" transform="translate(82,60)"/>
<path d="M0 0 C0.87454834 0.00523682 1.74909668 0.01047363 2.65014648 0.01586914 C3.59438477 0.0190918 4.53862305 0.02231445 5.51147461 0.02563477 C6.50469727 0.03401367 7.49791992 0.04239258 8.52124023 0.05102539 C9.51833008 0.05553711 10.51541992 0.06004883 11.54272461 0.06469727 C14.0147551 0.07652516 16.48675496 0.09446124 18.95874023 0.11352539 C18.95874023 6.71352539 18.95874023 13.31352539 18.95874023 20.11352539 C20.46307617 20.10192383 21.96741211 20.09032227 23.51733398 20.07836914 C25.47696817 20.0689929 27.43660368 20.05989252 29.39624023 20.05102539 C30.88607422 20.03845703 30.88607422 20.03845703 32.40600586 20.02563477 C33.82236328 20.02080078 33.82236328 20.02080078 35.26733398 20.01586914 C36.57915649 20.00801392 36.57915649 20.00801392 37.91748047 20 C39.95874023 20.11352539 39.95874023 20.11352539 40.95874023 21.11352539 C40.9874468 22.51977415 40.94580508 23.92762942 40.87280273 25.33227539 C40.82897461 26.18176758 40.78514648 27.03125977 40.73999023 27.90649414 C40.68842773 28.79981445 40.63686523 29.69313477 40.58374023 30.61352539 C40.53991211 31.5068457 40.49608398 32.40016602 40.45092773 33.32055664 C40.08683765 39.98542798 40.08683765 39.98542798 38.95874023 41.11352539 C37.47002164 41.20021971 35.97729524 41.22056033 34.48608398 41.21118164 C33.67647217 41.20868408 32.86686035 41.20618652 32.03271484 41.20361328 C30.99767822 41.19450928 29.9626416 41.18540527 28.89624023 41.17602539 C25.61686523 41.15540039 22.33749023 41.13477539 18.95874023 41.11352539 C18.95874023 47.71352539 18.95874023 54.31352539 18.95874023 61.11352539 C14.64174844 63.27202129 11.50936553 63.41371099 6.83374023 63.36352539 C6.10541992 63.37125977 5.37709961 63.37899414 4.62670898 63.38696289 C-0.78783908 63.36694608 -0.78783908 63.36694608 -3.04125977 61.11352539 C-3.26831055 59.05053711 -3.26831055 59.05053711 -3.23657227 56.54321289 C-3.23157715 55.73609863 -3.22658203 54.92898437 -3.22143555 54.09741211 C-3.19412354 52.55851318 -3.19412354 52.55851318 -3.16625977 50.98852539 C-3.10438477 46.10040039 -3.10438477 46.10040039 -3.04125977 41.11352539 C-9.64125977 41.11352539 -16.24125977 41.11352539 -23.04125977 41.11352539 C-22.71125977 34.18352539 -22.38125977 27.25352539 -22.04125977 20.11352539 C-15.77125977 20.11352539 -9.50125977 20.11352539 -3.04125977 20.11352539 C-3.08084004 13.90559625 -3.08084004 13.90559625 -3.13134766 7.69775391 C-3.13384521 6.92874756 -3.13634277 6.15974121 -3.13891602 5.36743164 C-3.14677124 4.18129272 -3.14677124 4.18129272 -3.15478516 2.97119141 C-2.99295568 0.32310438 -2.6437155 0.14703118 0 0 Z " fill="#ECECEC" transform="translate(164.041259765625,68.886474609375)"/>
<path d="M0 0 C0.66 0 1.32 0 2 0 C2.84479453 2.37145894 3.67593283 4.74634124 4.5 7.125 C4.73847656 7.79015625 4.97695312 8.4553125 5.22265625 9.140625 C5.44824219 9.79804687 5.67382812 10.45546875 5.90625 11.1328125 C6.11572266 11.72980957 6.32519531 12.32680664 6.54101562 12.94189453 C7 15 7 15 7 21 C2.71 21 -1.58 21 -6 21 C-5.505 16.545 -5.505 16.545 -5 12 C-4.34 12 -3.68 12 -3 12 C-2.87625 10.7625 -2.7525 9.525 -2.625 8.25 C-2.24253695 5.1237803 -1.69450477 2.71120763 0 0 Z " fill="#2F2F2F" transform="translate(92,89)"/>
<path d="M0 0 C0.66 0.33 1.32 0.66 2 1 C-2.46351289 6.22325977 -7.0744893 11.20922972 -12 16 C-12.66 15.67 -13.32 15.34 -14 15 C-5.72093023 5.41860465 -5.72093023 5.41860465 -3 3 C-2.34 3 -1.68 3 -1 3 C-0.67 2.01 -0.34 1.02 0 0 Z " fill="#CCCCCC" transform="translate(44,33)"/>
<path d="M0 0 C0.66 0 1.32 0 2 0 C2.33 2.31 2.66 4.62 3 7 C1.68 6.67 0.36 6.34 -1 6 C-1.33 6.66 -1.66 7.32 -2 8 C-1.125 2.25 -1.125 2.25 0 0 Z " fill="#404040" transform="translate(92,89)"/>
<path d="M0 0 C0.99 0.33 1.98 0.66 3 1 C-0.96 4.465 -0.96 4.465 -5 8 C-5.66 7.67 -6.32 7.34 -7 7 C-4.69 4.69 -2.38 2.38 0 0 Z " fill="#343434" transform="translate(53,47)"/>
</svg>
